<svg width="1512" height="1010" viewBox="0 0 1512 1010" fill="none" xmlns="http://www.w3.org/2000/svg">
<g clip-path="url(#clip0_1_6)">
<mask id="mask0_1_6" style="mask-type:alpha" maskUnits="userSpaceOnUse" x="-136" y="0" width="1784" height="1010">
<path d="M-136 0H756H1648V1010L737.045 598.408L-136 1010V0Z" fill="#F0F9F5"/>
</mask>
<g mask="url(#mask0_1_6)">
<path d="M-136 0H756H1648V1010L737.045 598.408L-136 1010V0Z" fill="#D3EAFF"/>
<g opacity="0.3">
<path opacity="0.1" d="M2149.82 731.646C2613.11 731.646 2988.67 473.05 2988.67 154.056C2988.67 -164.939 2613.11 -423.535 2149.82 -423.535C1686.54 -423.535 1310.98 -164.939 1310.98 154.056C1310.98 473.05 1686.54 731.646 2149.82 731.646Z" stroke="#0033E8" stroke-width="3.71872"/>
<path opacity="0.1" d="M1871.17 827.582C2334.46 827.582 2710.02 568.985 2710.02 249.991C2710.02 -69.0032 2334.46 -327.599 1871.17 -327.599C1407.89 -327.599 1032.33 -69.0032 1032.33 249.991C1032.33 568.985 1407.89 827.582 1871.17 827.582Z" stroke="#0033E8" stroke-width="3.71872"/>
<path opacity="0.1" d="M1652.03 926.311C2142.95 926.311 2540.92 652.286 2540.92 314.258C2540.92 -23.7688 2142.95 -297.794 1652.03 -297.794C1161.1 -297.794 763.13 -23.7688 763.13 314.258C763.13 652.286 1161.1 926.311 1652.03 926.311Z" stroke="#0033E8" stroke-width="3.71872"/>
<path opacity="0.1" d="M1340.92 1002.69C1831.84 1002.69 2229.81 728.661 2229.81 390.634C2229.81 52.6067 1831.84 -221.418 1340.92 -221.418C849.993 -221.418 452.02 52.6067 452.02 390.634C452.02 728.661 849.993 1002.69 1340.92 1002.69Z" stroke="#0033E8" stroke-width="3.71872"/>
<path opacity="0.1" d="M2183.82 426.493C2183.82 784.228 1726.63 1074.4 1162.36 1074.4C598.069 1074.4 140.892 784.228 140.892 426.493C140.892 68.7578 598.069 -221.418 1162.36 -221.418C1726.63 -221.418 2183.82 68.7578 2183.82 426.493Z" stroke="#0033E8" stroke-width="3.71872"/>
</g>
</g>
</g>
<defs>
<clipPath id="clip0_1_6">
<rect width="1784" height="1010" fill="white" transform="translate(-136)"/>
</clipPath>
</defs>
</svg>
